# xmcd
#
# Track frame offsets: 
#        150
#        20368
#        39833
#        61476
#        82076
#        103652
#        123649
#        143735
#        160013
#        181486
#        203366
#        223597
#        229679
#        254037
#        274628
#        313126
#
# Disc length: 4442 seconds
#
# Revision: 5
# Processed by: cddbd v1.5.1PL0 Copyright (c) Steve Scherf et al.
# Submitted via: ExactAudioCopy v0.95b1
#
DISCID=e0115810
DTITLE=Jon B. - Cool Relax
DYEAR=1997
DGENRE=R&B
TTITLE0=Shine
TTITLE1=Bad Girl
TTITLE2=Don't Say
TTITLE3=They Don't Know
TTITLE4=Can't Help It
TTITLE5=Cool Relax
TTITLE6=Are U Still Down
TTITLE7=Pride and Joy
TTITLE8=I Do (Whatcha Say Boo)
TTITLE9=Let Me Know
TTITLE10=I Ain't Going Out
TTITLE11=Let's Go (Interlude)
TTITLE12=Can We Get Down
TTITLE13=Love Hurts
TTITLE14=Tu Amor
TTITLE15=You Are My Joy
EXTD=Special Enhanced CD Feature:\nAllows User To Manipulate Mixer Tra
EXTD=cks to "Don't Say"
EXTT0=
EXTT1=
EXTT2=
EXTT3=
EXTT4=
EXTT5=
EXTT6=
EXTT7=
EXTT8=
EXTT9=
EXTT10=
EXTT11=
EXTT12=
EXTT13=
EXTT14=
EXTT15=
PLAYORDER=
